<svg width="649.3" height="76.003" viewBox="0 0 649.3 76.003" xmlns="http://www.w3.org/2000/svg"><g id="svgGroup" stroke-linecap="round" fill-rule="evenodd" font-size="9pt" stroke="#000" stroke-width="0.25mm" fill="black" style="stroke:#000;stroke-width:0.25mm;fill:black"><path d="M 0 6.9 L 0 5 L 31.2 5 L 31.2 6.9 L 25.4 6.9 L 25.4 37.9 L 45.3 37.9 L 45.3 6.9 L 39.4 6.9 L 39.4 5 L 70.7 5 L 70.7 6.9 L 64.8 6.9 L 64.8 73.1 L 70.7 73.1 L 70.7 75 L 39.4 75 L 39.4 73.1 L 45.3 73.1 L 45.3 40.5 L 25.4 40.5 L 25.4 73.1 L 31.2 73.1 L 31.2 75 L 0 75 L 0 73.1 L 5.9 73.1 L 5.9 6.9 L 0 6.9 Z M 402.8 6.9 L 402.8 5 L 434 5 L 434 6.9 L 428.2 6.9 L 428.2 37.9 L 448.1 37.9 L 448.1 6.9 L 442.2 6.9 L 442.2 5 L 473.5 5 L 473.5 6.9 L 467.6 6.9 L 467.6 73.1 L 473.5 73.1 L 473.5 75 L 442.2 75 L 442.2 73.1 L 448.1 73.1 L 448.1 40.5 L 428.2 40.5 L 428.2 73.1 L 434 73.1 L 434 75 L 402.8 75 L 402.8 73.1 L 408.7 73.1 L 408.7 6.9 L 402.8 6.9 Z M 270.7 5 L 329.7 5 L 330.7 30.1 L 328.8 30.1 Q 324.409 16.827 321.014 11.97 A 17.41 17.41 0 0 0 321 11.95 A 10.911 10.911 0 0 0 313.034 7.207 A 15.276 15.276 0 0 0 311.2 7.1 L 310 7.1 L 310 72.9 L 318.5 72.9 L 318.5 75 L 282 75 L 282 72.9 L 290.5 72.9 L 290.5 7.1 L 289.2 7.1 A 12.906 12.906 0 0 0 284.643 7.871 Q 281.533 9.035 279.434 11.959 A 14.19 14.19 0 0 0 279.3 12.15 A 29.46 29.46 0 0 0 277.391 15.387 Q 275.551 18.948 273.537 24.465 A 169.507 169.507 0 0 0 271.6 30.1 L 269.7 30.1 L 270.7 5 Z M 128.9 29.2 L 128.9 27.4 L 153 27.4 L 153 36.6 Q 154.6 32 157.9 29.2 A 10.305 10.305 0 0 1 161.216 27.361 Q 162.724 26.836 164.582 26.597 A 26.145 26.145 0 0 1 167.9 26.4 Q 180.139 26.4 182.714 36.811 A 26.267 26.267 0 0 1 183.4 43.1 L 183.4 73.2 L 189 73.2 L 189 75 L 160.7 75 L 160.7 73.2 L 164.8 73.2 L 164.8 40.7 A 70.569 70.569 0 0 0 164.762 38.278 Q 164.646 34.936 164.183 33.44 A 4.106 4.106 0 0 0 164 32.95 A 2.993 2.993 0 0 0 163.166 31.842 Q 162.371 31.2 161.1 31.2 Q 158.537 31.2 156.455 33.895 A 13.992 13.992 0 0 0 155.45 35.4 Q 153 39.6 153 45.6 L 153 73.2 L 157.3 73.2 L 157.3 75 L 128.9 75 L 128.9 73.2 L 134.4 73.2 L 134.4 29.2 L 128.9 29.2 Z M 531.7 29.2 L 531.7 27.4 L 555.8 27.4 L 555.8 36.6 Q 557.4 32 560.7 29.2 A 10.305 10.305 0 0 1 564.016 27.361 Q 565.524 26.836 567.382 26.597 A 26.145 26.145 0 0 1 570.7 26.4 Q 582.939 26.4 585.514 36.811 A 26.267 26.267 0 0 1 586.2 43.1 L 586.2 73.2 L 591.8 73.2 L 591.8 75 L 563.5 75 L 563.5 73.2 L 567.6 73.2 L 567.6 40.7 A 70.569 70.569 0 0 0 567.562 38.278 Q 567.446 34.936 566.983 33.44 A 4.106 4.106 0 0 0 566.8 32.95 A 2.993 2.993 0 0 0 565.966 31.842 Q 565.171 31.2 563.9 31.2 Q 561.337 31.2 559.255 33.895 A 13.992 13.992 0 0 0 558.25 35.4 Q 555.8 39.6 555.8 45.6 L 555.8 73.2 L 560.1 73.2 L 560.1 75 L 531.7 75 L 531.7 73.2 L 537.2 73.2 L 537.2 29.2 L 531.7 29.2 Z M 97.8 51.5 L 100.7 51.5 L 100.7 43.8 A 137.237 137.237 0 0 0 100.65 39.943 Q 100.488 34.226 99.808 31.597 A 9.643 9.643 0 0 0 99.65 31.05 A 6.172 6.172 0 0 0 98.955 29.554 Q 97.876 27.91 95.872 27.807 A 5.299 5.299 0 0 0 95.6 27.8 Q 93.8 27.8 92.35 28.75 A 3.444 3.444 0 0 0 91.47 29.556 Q 90.91 30.302 90.9 31.314 A 3.731 3.731 0 0 0 90.9 31.35 A 9.762 9.762 0 0 0 91.296 34.064 A 11.403 11.403 0 0 0 91.5 34.7 L 94 34.7 A 11.433 11.433 0 0 1 94.574 36.856 Q 94.8 38.183 94.8 39.75 A 6.314 6.314 0 0 1 92.958 44.225 A 8.924 8.924 0 0 1 92.3 44.85 Q 89.8 47 86 47 A 12.875 12.875 0 0 1 82.649 46.603 Q 78.28 45.422 77.548 40.732 A 13.184 13.184 0 0 1 77.4 38.7 A 10.175 10.175 0 0 1 83.562 28.969 Q 88.136 26.703 96.108 26.436 A 65.456 65.456 0 0 1 98.3 26.4 Q 110.2 26.4 114.75 30.45 A 11.161 11.161 0 0 1 117.523 34.437 Q 119.3 38.55 119.3 45.3 L 119.3 65.6 A 13.929 13.929 0 0 0 119.402 67.367 Q 119.641 69.223 120.439 70.075 A 2.302 2.302 0 0 0 122.2 70.8 A 2.382 2.382 0 0 0 124.164 69.644 Q 125.538 67.719 126.04 62.584 A 53.363 53.363 0 0 0 126.2 60.5 L 127.7 60.6 A 44.586 44.586 0 0 1 127.344 64.656 Q 126.796 68.626 125.533 71.024 A 8.588 8.588 0 0 1 124.4 72.7 A 8.694 8.694 0 0 1 120.868 75.069 Q 118.406 76 114.9 76 A 29.34 29.34 0 0 1 110.176 75.652 Q 107.81 75.264 106.04 74.444 A 8.405 8.405 0 0 1 101.1 68.6 A 14.085 14.085 0 0 1 99.942 71.169 Q 99.034 72.718 97.792 73.751 A 8.449 8.449 0 0 1 97.2 74.2 A 8.699 8.699 0 0 1 94.83 75.323 Q 92.666 76 89.6 76 Q 76.331 76 74.958 66.274 A 16.994 16.994 0 0 1 74.8 63.9 A 13.741 13.741 0 0 1 75.285 60.122 A 9.127 9.127 0 0 1 80.45 54.15 A 21.731 21.731 0 0 1 84.543 52.76 Q 88.796 51.728 94.979 51.541 A 93.659 93.659 0 0 1 97.8 51.5 Z M 500.6 51.5 L 503.5 51.5 L 503.5 43.8 A 137.237 137.237 0 0 0 503.45 39.943 Q 503.288 34.226 502.608 31.597 A 9.643 9.643 0 0 0 502.45 31.05 A 6.172 6.172 0 0 0 501.755 29.554 Q 500.676 27.91 498.672 27.807 A 5.299 5.299 0 0 0 498.4 27.8 Q 496.6 27.8 495.15 28.75 A 3.444 3.444 0 0 0 494.27 29.556 Q 493.71 30.302 493.7 31.314 A 3.731 3.731 0 0 0 493.7 31.35 A 9.762 9.762 0 0 0 494.096 34.064 A 11.403 11.403 0 0 0 494.3 34.7 L 496.8 34.7 A 11.433 11.433 0 0 1 497.374 36.856 Q 497.6 38.183 497.6 39.75 A 6.314 6.314 0 0 1 495.758 44.225 A 8.924 8.924 0 0 1 495.1 44.85 Q 492.6 47 488.8 47 A 12.875 12.875 0 0 1 485.449 46.603 Q 481.08 45.422 480.348 40.732 A 13.184 13.184 0 0 1 480.2 38.7 A 10.175 10.175 0 0 1 486.362 28.969 Q 490.936 26.703 498.908 26.436 A 65.456 65.456 0 0 1 501.1 26.4 Q 513 26.4 517.55 30.45 A 11.161 11.161 0 0 1 520.323 34.437 Q 522.1 38.55 522.1 45.3 L 522.1 65.6 A 13.929 13.929 0 0 0 522.202 67.367 Q 522.441 69.223 523.239 70.075 A 2.302 2.302 0 0 0 525 70.8 A 2.382 2.382 0 0 0 526.964 69.644 Q 528.338 67.719 528.84 62.584 A 53.363 53.363 0 0 0 529 60.5 L 530.5 60.6 A 44.586 44.586 0 0 1 530.144 64.656 Q 529.596 68.626 528.333 71.024 A 8.588 8.588 0 0 1 527.2 72.7 A 8.694 8.694 0 0 1 523.668 75.069 Q 521.206 76 517.7 76 A 29.34 29.34 0 0 1 512.976 75.652 Q 510.61 75.264 508.84 74.444 A 8.405 8.405 0 0 1 503.9 68.6 A 14.085 14.085 0 0 1 502.742 71.169 Q 501.834 72.718 500.592 73.751 A 8.449 8.449 0 0 1 500 74.2 A 8.699 8.699 0 0 1 497.63 75.323 Q 495.466 76 492.4 76 Q 479.131 76 477.758 66.274 A 16.994 16.994 0 0 1 477.6 63.9 A 13.741 13.741 0 0 1 478.085 60.122 A 9.127 9.127 0 0 1 483.25 54.15 A 21.731 21.731 0 0 1 487.343 52.76 Q 491.596 51.728 497.779 51.541 A 93.659 93.659 0 0 1 500.6 51.5 Z M 246.5 75 L 224.3 75 L 223.2 68 Q 219.8 76 209.4 76 A 19.043 19.043 0 0 1 203.498 75.13 A 15.077 15.077 0 0 1 196.05 69.8 A 19.924 19.924 0 0 1 193.019 63.891 Q 192.106 61.133 191.678 57.752 A 51.5 51.5 0 0 1 191.3 51.3 Q 191.3 28.556 207.82 26.587 A 27.721 27.721 0 0 1 211.1 26.4 A 24.402 24.402 0 0 1 215.125 26.706 Q 220.6 27.625 222.7 31.3 L 222.7 1.8 L 216.6 1.8 L 216.6 0 L 241.6 0 L 241.6 73.2 L 246.5 73.2 L 246.5 75 Z M 649.3 75 L 627.1 75 L 626 68 Q 622.6 76 612.2 76 A 19.043 19.043 0 0 1 606.298 75.13 A 15.077 15.077 0 0 1 598.85 69.8 A 19.924 19.924 0 0 1 595.819 63.891 Q 594.906 61.133 594.478 57.752 A 51.5 51.5 0 0 1 594.1 51.3 Q 594.1 28.556 610.62 26.587 A 27.721 27.721 0 0 1 613.9 26.4 A 24.402 24.402 0 0 1 617.925 26.706 Q 623.4 27.625 625.5 31.3 L 625.5 1.8 L 619.4 1.8 L 619.4 0 L 644.4 0 L 644.4 73.2 L 649.3 73.2 L 649.3 75 Z M 355.5 76 Q 343 76 336.6 69.6 Q 330.2 63.2 330.2 51.25 A 33.35 33.35 0 0 1 330.973 43.842 Q 332.131 38.758 335.024 35.067 A 19.918 19.918 0 0 1 337.05 32.85 A 22.467 22.467 0 0 1 346.512 27.635 Q 349.989 26.651 354.14 26.451 A 44.929 44.929 0 0 1 356.3 26.4 A 41.227 41.227 0 0 1 363.107 26.924 Q 366.78 27.541 369.687 28.881 A 18.101 18.101 0 0 1 374.8 32.35 A 18.477 18.477 0 0 1 379.327 39.721 Q 380.335 42.657 380.697 46.255 A 42.42 42.42 0 0 1 380.9 50.5 Q 380.9 70.735 364.906 74.913 A 37.282 37.282 0 0 1 355.5 76 Z M 361.7 55.3 L 361.7 46.8 Q 361.7 37.1 360.65 32.65 A 8.456 8.456 0 0 0 359.981 30.756 Q 358.736 28.31 356.045 28.205 A 6.267 6.267 0 0 0 355.8 28.2 A 6.295 6.295 0 0 0 354.24 28.383 A 4.523 4.523 0 0 0 352.25 29.45 Q 350.9 30.7 350.3 33.6 Q 349.602 37.089 349.445 43.404 A 157.43 157.43 0 0 0 349.4 47.3 L 349.4 55.1 A 289.038 289.038 0 0 0 349.423 58.882 Q 349.519 66.218 350.023 68.104 A 3.805 3.805 0 0 0 350.05 68.2 A 31.804 31.804 0 0 0 350.534 69.708 Q 350.957 70.914 351.4 71.8 A 3.863 3.863 0 0 0 354.169 74.036 A 6.643 6.643 0 0 0 355.7 74.2 A 5.032 5.032 0 0 0 358.085 73.656 Q 359.968 72.661 360.76 69.848 A 11.288 11.288 0 0 0 360.8 69.7 Q 361.542 67.062 361.672 58.984 A 229.329 229.329 0 0 0 361.7 55.3 Z M 223 61.4 L 223 39.6 A 18.206 18.206 0 0 0 222.719 36.321 Q 222.309 34.081 221.3 32.3 A 6.481 6.481 0 0 0 219.925 30.577 Q 218.453 29.3 216.3 29.3 Q 213.341 29.3 212.07 32.839 A 11.52 11.52 0 0 0 211.8 33.7 Q 210.6 38.1 210.6 49.1 L 210.6 54.3 A 159.25 159.25 0 0 0 210.653 58.556 Q 210.816 64.621 211.483 67.455 A 10.714 10.714 0 0 0 211.7 68.25 Q 212.8 71.7 215.75 71.7 A 6.129 6.129 0 0 0 220.016 69.984 A 8.882 8.882 0 0 0 220.85 69.1 A 8.273 8.273 0 0 0 222.281 66.461 Q 222.686 65.273 222.862 63.82 A 20.064 20.064 0 0 0 223 61.4 Z M 625.8 61.4 L 625.8 39.6 A 18.206 18.206 0 0 0 625.519 36.321 Q 625.109 34.081 624.1 32.3 A 6.481 6.481 0 0 0 622.725 30.577 Q 621.253 29.3 619.1 29.3 Q 616.141 29.3 614.87 32.839 A 11.52 11.52 0 0 0 614.6 33.7 Q 613.4 38.1 613.4 49.1 L 613.4 54.3 A 159.25 159.25 0 0 0 613.453 58.556 Q 613.616 64.621 614.283 67.455 A 10.714 10.714 0 0 0 614.5 68.25 Q 615.6 71.7 618.55 71.7 A 6.129 6.129 0 0 0 622.816 69.984 A 8.882 8.882 0 0 0 623.65 69.1 A 8.273 8.273 0 0 0 625.081 66.461 Q 625.486 65.273 625.662 63.82 A 20.064 20.064 0 0 0 625.8 61.4 Z M 100.7 62.4 L 100.7 53.1 L 100 53.1 A 5.827 5.827 0 0 0 96.848 53.913 Q 93.8 55.819 93.8 62.2 L 93.8 63.8 Q 93.8 69 94.35 70.5 A 2.667 2.667 0 0 0 94.765 71.258 Q 95.36 72 96.45 72 Q 98 72 99.35 69.45 Q 100.7 66.9 100.7 62.4 Z M 503.5 62.4 L 503.5 53.1 L 502.8 53.1 A 5.827 5.827 0 0 0 499.648 53.913 Q 496.6 55.819 496.6 62.2 L 496.6 63.8 Q 496.6 69 497.15 70.5 A 2.667 2.667 0 0 0 497.565 71.258 Q 498.16 72 499.25 72 Q 500.8 72 502.15 69.45 Q 503.5 66.9 503.5 62.4 Z" vector-effect="non-scaling-stroke"/></g></svg>